HIERARCHY
ROOT root
{
	OFFSET	0.00	0.00	0.00
	CHANNELS 6 Xposition Yposition Zposition Zrotation Xrotation Yrotation
	JOINT back
	{
		OFFSET	 0.494684	-0.003138	-0.003217
		CHANNELS 3 Zrotation Xrotation Yrotation
		JOINT chest
		{
			OFFSET	 0.264817	 0.004177	 0.000000
			CHANNELS 3 Zrotation Xrotation Yrotation
			JOINT l_clavicle
			{
				OFFSET	 0.114550	 0.000716	-0.065320
				CHANNELS 3 Zrotation Xrotation Yrotation
				JOINT l_end_clavicle
				{
					OFFSET	 0.162817	-0.003802	 0.000069
					CHANNELS 3 Zrotation Xrotation Yrotation
					JOINT l_shoulder
					{
						OFFSET	 0.005329	-0.036468	 0.055870
						CHANNELS 3 Zrotation Xrotation Yrotation
						JOINT l_forearm
						{
							OFFSET	 0.293748	 0.004777	-0.037788
							CHANNELS 3 Zrotation Xrotation Yrotation
							JOINT l_end_wrist
							{
								OFFSET	 0.317021	-0.006522	 0.006333
								CHANNELS 3 Zrotation Xrotation Yrotation
								JOINT l_index1
								{
									OFFSET	 0.152748	-0.021000	-0.014320
									CHANNELS 3 Zrotation Xrotation Yrotation
									JOINT l_index2
									{
										OFFSET	 0.039283	 0.000000	 0.000000
										CHANNELS 3 Zrotation Xrotation Yrotation
										JOINT l_index3
										{
											OFFSET	 0.038151	 0.000000	 0.000000
											CHANNELS 3 Zrotation Xrotation Yrotation
											End Site
											{
												OFFSET	 0.038151	 0.000000	 0.000000
											}
										}
									}
								}
								JOINT l_middle1
								{
									OFFSET	 0.151723	 0.016194	-0.014667
									CHANNELS 3 Zrotation Xrotation Yrotation
									JOINT l_middle_2
									{
										OFFSET	 0.038269	 0.000000	 0.000000
										CHANNELS 3 Zrotation Xrotation Yrotation
										JOINT l_middle_3
										{
											OFFSET	 0.039743	 0.000000	 0.000000
											CHANNELS 3 Zrotation Xrotation Yrotation
											End Site
											{
												OFFSET	 0.039743	 0.000000	 0.000000
											}
										}
									}
								}
								JOINT l_pinky1
								{
									OFFSET	 0.117088	 0.077397	-0.013819
									CHANNELS 3 Zrotation Xrotation Yrotation
									JOINT l_pinky2
									{
										OFFSET	 0.028938	 0.000000	 0.000000
										CHANNELS 3 Zrotation Xrotation Yrotation
										JOINT l_pinky3
										{
											OFFSET	 0.027080	 0.000000	 0.000000
											CHANNELS 3 Zrotation Xrotation Yrotation
											End Site
											{
												OFFSET	 0.027080	 0.000000	 0.000000
											}
										}
									}
								}
								JOINT l_ring1
								{
									OFFSET	 0.137788	 0.047650	-0.014135
									CHANNELS 3 Zrotation Xrotation Yrotation
									JOINT l_ring2
									{
										OFFSET	 0.030749	 0.000000	 0.000000
										CHANNELS 3 Zrotation Xrotation Yrotation
										JOINT l_ring3
										{
											OFFSET	 0.032711	 0.000000	 0.000000
											CHANNELS 3 Zrotation Xrotation Yrotation
											End Site
											{
												OFFSET	 0.032711	 0.000000	 0.000000
											}
										}
									}
								}
								JOINT l_thumb1
								{
									OFFSET	 0.054053	-0.036728	-0.011261
									CHANNELS 3 Zrotation Xrotation Yrotation
									JOINT l_thumb_2
									{
										OFFSET	 0.051141	-0.005593	-0.001180
										CHANNELS 3 Zrotation Xrotation Yrotation
										JOINT l_thumb_3
										{
											OFFSET	 0.046422	-0.001905	 0.000191
											CHANNELS 3 Zrotation Xrotation Yrotation
											End Site
											{
												OFFSET	 0.046422	-0.001905	 0.000191
											}
										}
									}
								}
							}
						}
					}
				}
			}
			JOINT neck
			{
				OFFSET	 0.143918	 0.000470	 0.000000
				CHANNELS 3 Zrotation Xrotation Yrotation
				JOINT head
				{
					OFFSET	-0.005038	-0.004312	 0.061068
					CHANNELS 3 Zrotation Xrotation Yrotation
					End Site
					{
						OFFSET	-0.005038	-0.004312	 0.061068
					}
				}
			}
			JOINT r_clavicle
			{
				OFFSET	 0.114552	 0.000716	 0.065320
				CHANNELS 3 Zrotation Xrotation Yrotation
				JOINT r_end_clavicle
				{
					OFFSET	-0.162817	 0.003801	-0.000067
					CHANNELS 3 Zrotation Xrotation Yrotation
					JOINT r_shoulder
					{
						OFFSET	 0.002145	 0.026426	-0.022629
						CHANNELS 3 Zrotation Xrotation Yrotation
						JOINT r_forearm
						{
							OFFSET	-0.279895	-0.026969	 0.065371
							CHANNELS 3 Zrotation Xrotation Yrotation
							JOINT r_end_wrist
							{
								OFFSET	-0.317022	 0.006522	-0.006331
								CHANNELS 3 Zrotation Xrotation Yrotation
								JOINT r_index1
								{
									OFFSET	-0.152748	 0.021000	 0.014322
									CHANNELS 3 Zrotation Xrotation Yrotation
									JOINT r_index2
									{
										OFFSET	-0.039280	 0.000000	-0.000001
										CHANNELS 3 Zrotation Xrotation Yrotation
										JOINT r_index3
										{
											OFFSET	-0.038152	 0.000000	-0.000001
											CHANNELS 3 Zrotation Xrotation Yrotation
											End Site
											{
												OFFSET	-0.038152	 0.000000	-0.000001
											}
										}
									}
								}
								JOINT r_middle1
								{
									OFFSET	-0.151722	-0.016194	 0.014664
									CHANNELS 3 Zrotation Xrotation Yrotation
									JOINT r_middle_2
									{
										OFFSET	-0.038270	 0.000000	 0.000003
										CHANNELS 3 Zrotation Xrotation Yrotation
										JOINT r_middle_3
										{
											OFFSET	-0.039744	 0.000000	 0.000000
											CHANNELS 3 Zrotation Xrotation Yrotation
											End Site
											{
												OFFSET	-0.039744	 0.000000	 0.000000
											}
										}
									}
								}
								JOINT r_pinky1
								{
									OFFSET	-0.117090	-0.077397	 0.013818
									CHANNELS 3 Zrotation Xrotation Yrotation
									JOINT r_pinky2
									{
										OFFSET	-0.028938	 0.000000	 0.000000
										CHANNELS 3 Zrotation Xrotation Yrotation
										JOINT r_pinky3
										{
											OFFSET	-0.027078	-0.000001	 0.000000
											CHANNELS 3 Zrotation Xrotation Yrotation
											End Site
											{
												OFFSET	-0.027078	-0.000001	 0.000000
											}
										}
									}
								}
								JOINT r_ring1
								{
									OFFSET	-0.137790	-0.047650	 0.014136
									CHANNELS 3 Zrotation Xrotation Yrotation
									JOINT r_ring2
									{
										OFFSET	-0.030748	 0.000000	-0.000001
										CHANNELS 3 Zrotation Xrotation Yrotation
										JOINT r_ring3
										{
											OFFSET	-0.032707	-0.000001	 0.000003
											CHANNELS 3 Zrotation Xrotation Yrotation
											End Site
											{
												OFFSET	-0.032707	-0.000001	 0.000003
											}
										}
									}
								}
								JOINT r_thumb1
								{
									OFFSET	-0.054054	 0.036728	 0.011262
									CHANNELS 3 Zrotation Xrotation Yrotation
									JOINT r_thumb_2
									{
										OFFSET	-0.051140	 0.005594	 0.001177
										CHANNELS 3 Zrotation Xrotation Yrotation
										JOINT r_thumb_3
										{
											OFFSET	-0.046419	 0.001906	-0.000190
											CHANNELS 3 Zrotation Xrotation Yrotation
											End Site
											{
												OFFSET	-0.046419	 0.001906	-0.000190
											}
										}
									}
								}
							}
						}
					}
				}
			}
		}
	}
	JOINT Pelvis
	{
		OFFSET	 0.153809	-0.002935	-0.002619
		CHANNELS 3 Zrotation Xrotation Yrotation
		JOINT l_thigh
		{
			OFFSET	 0.145222	-0.127336	 0.003596
			CHANNELS 3 Zrotation Xrotation Yrotation
			End Site
			{
				OFFSET	 0.145222	-0.127336	 0.003596
			}
		}
		JOINT r_thigh
		{
			OFFSET	 0.143036	 0.137870	 0.004463
			CHANNELS 3 Zrotation Xrotation Yrotation
			End Site
			{
				OFFSET	 0.143036	 0.137870	 0.004463
			}
		}
	}
}
MOTION
Frames:    6
Frame Time: 0.01666667
-0.001963	 0.002454	-0.116118	 179.305400	 0.221747	-89.965800	-0.000021	 0.000000	 0.000000	-0.000021	 0.000000	 0.000000	-3.525149	 11.225090	 114.920700	-0.813313	 0.122417	-8.559153	-39.721840	-22.971270	 34.504040	-46.877240	 33.730030	 8.058828	-1.508344	 27.119350	 0.905986	-11.666870	-4.636808	 35.944750	 2.477603	-1.136251	 35.323120	 2.739605	 0.675539	-52.364350	-0.352786	 1.276010	 35.556880	-0.202301	 3.178486	 36.024460	 2.411832	 5.494030	-52.520410	 39.007590	 20.375220	 27.137650	-6.436097	 19.357820	 32.910680	-5.387433	 19.254410	-57.899170	 18.466570	 10.398590	 33.996140	-3.686892	 9.480865	 35.137450	-0.646625	 10.763470	-53.750010	-51.281710	-9.954659	 11.445530	 23.982090	-0.549087	 0.208112	 14.789960	-0.368235	 3.437935	-0.000006	 0.000001	 90.000000	-90.000000	 0.000000	-86.406780	 177.642400	 8.601227	 111.084700	-0.813313	 0.122417	-8.559153	 12.236280	 10.972310	 52.931600	-1.045101	 10.743230	-0.604093	-2.262662	 22.375880	-11.302420	-11.666870	-4.636809	 35.944760	 2.477604	-1.136251	 35.323130	 2.739605	 0.675539	-52.364380	-0.352786	 1.276010	 35.556880	-0.202300	 3.178487	 36.024460	 2.411833	 5.494030	-52.520430	 39.007590	 20.375220	 27.137660	-6.436093	 19.357820	 32.910680	-5.387434	 19.254410	-57.899150	 18.466580	 10.398590	 33.996150	-3.686890	 9.480865	 35.137440	-0.646626	 10.763470	-53.750010	-51.281720	-9.954665	 11.445540	 23.982080	-0.549088	 0.208112	 14.789960	-0.368242	 3.437935	 0.000000	 90.000000	 0.000000	 177.641500	 1.693646	 173.691800	-177.179200	-1.281514	-6.296279
-0.008974	-0.012133	-0.094579	-179.020400	 1.254698	-89.757710	-1.294436	-0.350104	-0.997517	-1.189616	-0.992031	-0.918078	-2.485042	 8.083105	 113.928200	-0.813313	 0.122417	-8.559153	-36.919590	-21.798410	 34.163560	-48.035170	 32.273330	 7.126738	-1.359912	 27.016280	-7.077149	-11.652250	-4.627184	 30.931530	 2.482057	-1.133426	 29.452110	 2.889279	 0.446215	-57.651240	 0.417595	 1.781998	 31.055060	-0.215013	 3.170097	 30.903520	 2.535661	 5.282129	-55.983840	 38.729110	 20.248070	 24.779850	-6.504509	 19.319330	 28.710310	-5.437074	 19.248640	-60.345150	 18.483620	 10.409370	 31.536500	-3.723892	 9.457441	 30.249570	-0.593001	 10.616510	-57.352700	-51.291460	-10.359420	 7.825347	 22.463660	-0.548128	 0.194883	 14.789960	-0.368235	 3.437935	 0.120965	 0.680894	 90.038350	-89.743710	-0.873950	-83.417500	 178.039900	 7.524987	 109.790100	-0.813313	 0.122417	-8.559153	 11.906460	 13.738940	 50.999480	-23.110730	 7.881965	-3.395841	 5.574098	 15.784070	-14.430490	-10.437720	-3.811369	 31.967430	 2.481480	-1.133800	 30.212710	 2.901610	 0.425066	-58.122870	 1.213177	 2.306740	 31.162020	-0.212041	 3.171899	 32.070300	 2.586248	 5.186164	-57.514150	 40.039230	 20.836440	 23.920570	-6.493778	 19.325140	 29.362210	-5.484299	 19.245220	-62.657030	 19.445370	 11.004210	 30.399940	-3.718575	 9.460705	 30.958150	-0.587122	 10.597940	-57.803590	-50.774010	-10.014130	 10.046020	 21.098970	-0.547001	 0.183020	 7.511938	-0.339809	 3.378270	 0.000000	 90.000000	 0.000000	 176.531600	 3.119922	 172.967300	-175.484300	-4.004545	-12.261930
-0.011062	-0.017097	-0.087554	-178.460300	 1.593714	-89.703560	-1.729232	-0.462530	-1.332605	-1.593838	-1.320993	-1.226816	-2.152080	 7.031672	 113.610200	-0.813313	 0.122417	-8.559153	-35.994050	-21.416280	 34.001570	-48.420850	 31.792070	 6.802851	-1.300622	 26.973750	-9.729101	-11.647190	-4.624260	 29.258270	 2.483605	-1.132587	 27.492560	 2.934447	 0.366722	-59.415660	 0.682940	 1.936971	 29.550900	-0.219416	 3.167553	 29.194330	 2.574091	 5.209793	-57.139460	 38.635120	 20.208100	 23.993110	-6.527981	 19.307540	 27.308560	-5.453692	 19.247150	-61.161370	 18.489440	 10.412830	 30.715540	-3.736675	 9.450328	 28.618210	-0.577213	 10.566750	-58.554770	-51.300470	-10.494270	 6.615993	 21.956860	-0.547729	 0.190474	 14.789960	-0.368235	 3.437935	 0.162028	 0.901240	 90.051590	-89.650160	-1.159781	-82.427920	 178.167300	 7.163370	 109.357800	-0.813313	 0.122417	-8.559153	 11.815760	 14.687650	 50.370320	-30.669680	 7.072225	-3.819039	 8.077572	 13.521380	-15.065490	-10.010840	-3.552127	 30.637430	 2.482821	-1.133061	 28.507020	 2.949979	 0.338000	-60.044670	 1.752324	 2.623112	 29.688820	-0.215391	 3.169851	 30.750060	 2.638311	 5.080304	-59.178270	 40.390000	 20.978090	 22.841550	-6.513464	 19.315000	 28.179570	-5.516545	 19.243860	-64.234080	 19.780550	 11.192460	 29.190910	-3.729480	 9.454486	 29.562310	-0.569959	 10.541900	-59.154270	-50.604950	-10.036250	 9.582932	 20.145610	-0.546035	 0.174750	 5.082769	-0.328662	 3.359220	 0.000000	 90.000000	 0.000000	 176.167300	 3.601304	 172.726500	-175.020400	-4.946095	-14.255320
-0.013310	-0.023010	-0.079537	-177.813300	 2.023995	-89.652580	-2.233714	-0.589227	-1.720951	-2.065660	-1.698821	-1.585023	-1.776988	 5.819670	 113.251400	-0.813313	 0.122417	-8.559153	-34.916710	-20.967740	 33.784650	-48.925620	 31.233300	 6.426652	-1.390406	 26.924210	-12.698640	-11.641260	-4.621077	 27.330830	 2.485422	-1.131686	 25.235300	 2.983414	 0.273480	-61.448040	 0.993143	 2.106535	 27.817290	-0.224580	 3.164787	 27.225480	 2.616528	 5.125532	-58.470400	 38.526300	 20.163610	 23.086980	-6.555387	 19.294650	 25.693970	-5.472857	 19.245730	-62.101410	 18.496280	 10.416760	 29.769800	-3.751647	 9.442581	 26.739060	-0.560352	 10.509060	-59.939180	-51.314420	-10.649330	 5.222232	 21.373070	-0.547218	 0.185399	 14.789960	-0.368235	 3.437935	 0.210150	 1.135892	 90.067410	-89.543400	-1.437757	-81.315310	 178.309500	 6.749665	 108.859800	-0.813313	 0.122417	-8.559153	 11.759820	 15.831990	 49.626850	-39.457390	 6.132593	-3.991799	 10.887770	 10.912680	-15.465310	-9.506262	-3.267609	 28.900620	 2.484580	-1.132166	 26.309270	 3.006977	 0.225536	-62.477440	 2.418705	 2.986930	 27.833750	-0.219306	 3.167590	 29.230160	 2.694337	 4.956745	-61.091860	 40.785090	 21.128230	 21.600530	-6.536378	 19.303810	 26.819320	-5.553532	 19.243320	-66.041570	 20.166360	 11.397420	 27.794500	-3.742219	 9.447652	 27.955180	-0.551889	 10.476970	-60.707550	-50.352840	-10.051340	 9.062462	 19.054790	-0.544756	 0.165308	 2.292904	-0.314877	 3.337945	 0.000000	 90.000000	 0.000000	 175.753400	 4.158650	 172.448700	-174.554600	-6.043490	-16.554740
-0.015105	-0.028427	-0.072681	-177.254200	 2.476714	-89.622260	-2.673793	-0.695318	-2.056759	-2.479608	-2.021833	-1.895271	-1.462079	 4.779049	 112.949500	-0.813313	 0.122417	-8.559153	-33.953460	-20.549160	 33.577980	-49.511380	 30.741390	 6.108984	-1.509215	 26.883860	-15.217310	-11.636080	-4.618505	 25.676620	 2.487009	-1.130971	 23.298020	 3.022780	 0.192113	-63.192240	 1.262959	 2.244269	 26.328690	-0.229086	 3.162556	 25.535720	 2.651370	 5.052448	-59.612490	 38.432490	 20.126790	 22.309390	-6.579206	 19.284160	 24.308350	-5.489317	 19.244740	-62.908040	 18.502230	 10.420050	 28.958130	-3.764696	 9.436323	 25.126310	-0.547015	 10.459230	-61.127130	-51.329430	-10.782100	 4.025439	 20.872020	-0.546745	 0.181047	 14.789960	-0.368235	 3.437935	 0.252333	 1.310173	 90.081530	-89.463020	-1.573209	-80.399730	 178.426300	 6.403878	 108.432800	-0.813313	 0.122417	-8.559153	 11.796800	 16.895450	 48.943080	-47.043260	 5.267475	-3.888243	 13.207590	 8.703254	-15.440950	-9.065187	-3.034782	 27.409900	 2.486112	-1.131455	 24.426830	 3.052110	 0.127021	-64.568120	 2.996716	 3.279945	 26.239070	-0.222708	 3.165735	 27.927730	 2.738987	 4.849514	-62.730010	 41.098360	 21.239030	 20.544460	-6.556224	 19.294650	 25.654200	-5.585121	 19.243740	-67.585070	 20.489370	 11.558910	 26.596220	-3.753287	 9.442080	 26.578060	-0.537844	 10.420990	-62.037520	-50.120740	-10.062610	 8.621280	 18.124800	-0.543531	 0.157279	-0.081202	-0.302339	 3.320389	 0.000000	 90.000000	 0.000000	 175.406500	 4.637981	 172.208800	-174.220800	-6.990508	-18.532030
-0.016776	-0.033991	-0.065840	-176.691200	 2.954102	-89.604400	-3.122534	-0.798716	-2.395398	-2.903804	-2.343275	-2.208721	-1.153409	 3.738093	 112.653000	-0.813313	 0.122417	-8.559153	-32.951800	-20.097940	 33.349530	-50.236400	 30.239520	 5.792494	-1.568473	 26.840050	-17.754100	-11.630830	-4.616081	 24.022300	 2.488620	-1.130310	 21.360580	 3.059654	 0.109579	-64.936520	 1.535775	 2.374652	 24.839370	-0.233655	 3.160458	 23.845830	 2.684741	 4.978684	-60.754480	 38.338330	 20.091220	 21.531800	-6.603286	 19.274220	 22.922710	-5.505789	 19.243970	-63.714540	 18.508300	 10.423310	 28.146360	-3.777919	 9.430427	 23.513480	-0.534734	 10.409140	-62.314950	-51.347240	-10.914550	 2.828003	 20.370950	-0.546230	 0.176702	 14.789960	-0.368235	 3.437935	 0.295548	 1.454622	 90.096310	-89.400580	-1.659461	-79.527020	 178.538300	 6.065920	 108.006900	-0.813313	 0.122417	-8.559153	 11.875150	 17.976160	 48.246250	-54.644960	 4.303017	-3.579270	 15.472430	 6.528076	-15.209110	-8.621271	-2.809070	 26.089760	 2.487497	-1.130863	 22.749020	 3.090157	 0.035684	-66.477030	 3.545611	 3.541209	 24.773580	-0.226142	 3.163962	 26.628670	 2.780419	 4.741377	-64.362980	 41.394500	 21.336770	 19.495310	-6.576218	 19.285880	 24.491770	-5.616557	 19.244950	-69.122280	 20.806880	 11.708790	 25.399980	-3.764457	 9.436786	 25.204810	-0.525158	 10.364860	-63.363820	-49.909620	-10.079420	 8.178939	 17.199740	-0.542180	 0.149313	-2.438073	-0.289190	 3.303487	 0.000000	 90.000000	 0.000000	 175.069000	 5.117149	 171.966400	-173.950100	-7.938797	-20.513700
